<svg xmlns="http://www.w3.org/2000/svg" class="aimv" viewBox="-70 -72 140 168.4" width="140" height="168.4" role="img" aria-label="крест"><title>крест</title><g fill="#e8e9ed"><path d="M-40 29.57L-31.6 33.6L-40 37.63L-48.4 33.6Z"/><path d="M0 48.77L8.4 52.8L0 56.83L-8.4 52.8Z"/><path d="M-50 34.37L-41.6 38.4L-50 42.43L-58.4 38.4Z"/><path d="M-30 34.37L-21.6 38.4L-30 42.43L-38.4 38.4Z"/><path d="M-10 53.57L-1.6 57.6L-10 61.63L-18.4 57.6Z"/><path d="M10 53.57L18.4 57.6L10 61.63L1.6 57.6Z"/><path d="M-40 39.17L-31.6 43.2L-40 47.23L-48.4 43.2Z"/><path d="M-20 39.17L-11.6 43.2L-20 47.23L-28.4 43.2Z"/><path d="M0 58.37L8.4 62.4L0 66.43L-8.4 62.4Z"/><path d="M-30 43.97L-21.6 48L-30 52.03L-38.4 48Z"/><path d="M-10 43.97L-1.6 48L-10 52.03L-18.4 48Z"/><path d="M-20 48.77L-11.6 52.8L-20 56.83L-28.4 52.8Z"/><path d="M20 58.37L28.4 62.4L20 66.43L11.6 62.4Z"/><path d="M10 63.17L18.4 67.2L10 71.23L1.6 67.2Z"/><path d="M30 63.17L38.4 67.2L30 71.23L21.6 67.2Z"/><path d="M20 67.97L28.4 72L20 76.03L11.6 72Z"/><path d="M40 67.97L48.4 72L40 76.03L31.6 72Z"/><path d="M30 72.77L38.4 76.8L30 80.83L21.6 76.8Z"/><path d="M50 72.77L58.4 76.8L50 80.83L41.6 76.8Z"/><path d="M40 77.57L48.4 81.6L40 85.63L31.6 81.6Z"/></g><g class="aimv-cubes"><g class="aimv-c" stroke="#ffffff" stroke-opacity=".35" stroke-width="0.6" stroke-linejoin="round"><path fill="#6b6e75" d="M-40 -41.2L-30 -36.4L-40 -31.6L-50 -36.4Z"/></g><g class="aimv-c" stroke="#ffffff" stroke-opacity=".35" stroke-width="0.6" stroke-linejoin="round"><path fill="#202124" d="M-60 -21.6L-50 -16.8L-50 -6.8L-60 -11.6Z"/></g><g class="aimv-c" stroke="#ffffff" stroke-opacity=".35" stroke-width="0.6" stroke-linejoin="round"><path fill="#202124" d="M-20 37.6L-10 42.4L-10 52.4L-20 47.6Z"/></g><g class="aimv-c" stroke="#ffffff" stroke-opacity=".35" stroke-width="0.6" stroke-linejoin="round"><path fill="#6b6e75" d="M20 37.6L10 42.4L10 52.4L20 47.6Z"/></g><g class="aimv-c" stroke="#ffffff" stroke-opacity=".35" stroke-width="0.6" stroke-linejoin="round"><path fill="#6b6e75" d="M-50 -36.4L-40 -31.6L-50 -26.8L-60 -31.6Z"/><path fill="#202124" d="M-60 -31.6L-50 -26.8L-50 -16.8L-60 -21.6Z"/></g><g class="aimv-c" stroke="#ffffff" stroke-opacity=".35" stroke-width="0.6" stroke-linejoin="round"><path fill="#e8e9ed" d="M-30 -36.4L-20 -31.6L-30 -26.8L-40 -31.6Z"/></g><g class="aimv-c" stroke="#ffffff" stroke-opacity=".35" stroke-width="0.6" stroke-linejoin="round"><path fill="#6b6e75" d="M-50 -16.8L-40 -12L-40 -2L-50 -6.8Z"/></g><g class="aimv-c" stroke="#ffffff" stroke-opacity=".35" stroke-width="0.6" stroke-linejoin="round"><path fill="#6b6e75" d="M-20 27.6L-10 32.4L-10 42.4L-20 37.6Z"/></g><g class="aimv-c" stroke="#ffffff" stroke-opacity=".35" stroke-width="0.6" stroke-linejoin="round"><path fill="#6b6e75" d="M20 27.6L10 32.4L10 42.4L20 37.6Z"/></g><g class="aimv-c" stroke="#ffffff" stroke-opacity=".35" stroke-width="0.6" stroke-linejoin="round"><path fill="#202124" d="M-10 42.4L0 47.2L0 57.2L-10 52.4Z"/><path fill="#6b6e75" d="M10 42.4L0 47.2L0 57.2L10 52.4Z"/></g><g class="aimv-c" stroke="#ffffff" stroke-opacity=".35" stroke-width="0.6" stroke-linejoin="round"><path fill="#e8e9ed" d="M-40 -31.6L-30 -26.8L-40 -22L-50 -26.8Z"/><path fill="#6b6e75" d="M-50 -26.8L-40 -22L-40 -12L-50 -16.8Z"/></g><g class="aimv-c" stroke="#ffffff" stroke-opacity=".35" stroke-width="0.6" stroke-linejoin="round"><path fill="#e8e9ed" d="M-20 -31.6L-10 -26.8L-20 -22L-30 -26.8Z"/></g><g class="aimv-c" stroke="#ffffff" stroke-opacity=".35" stroke-width="0.6" stroke-linejoin="round"><path fill="#6b6e75" d="M-40 -12L-30 -7.2L-30 2.8L-40 -2Z"/></g><g class="aimv-c" stroke="#ffffff" stroke-opacity=".35" stroke-width="0.6" stroke-linejoin="round"><path fill="#6b6e75" d="M-20 17.6L-10 22.4L-10 32.4L-20 27.6Z"/></g><g class="aimv-c" stroke="#ffffff" stroke-opacity=".35" stroke-width="0.6" stroke-linejoin="round"><path fill="#6b6e75" d="M20 17.6L10 22.4L10 32.4L20 27.6Z"/></g><g class="aimv-c" stroke="#ffffff" stroke-opacity=".35" stroke-width="0.6" stroke-linejoin="round"><path fill="#6b6e75" d="M-10 32.4L0 37.2L0 47.2L-10 42.4Z"/><path fill="#6b6e75" d="M10 32.4L0 37.2L0 47.2L10 42.4Z"/></g><g class="aimv-c" stroke="#ffffff" stroke-opacity=".35" stroke-width="0.6" stroke-linejoin="round"><path fill="#e8e9ed" d="M-30 -26.8L-20 -22L-30 -17.2L-40 -22Z"/><path fill="#6b6e75" d="M-40 -22L-30 -17.2L-30 -7.2L-40 -12Z"/></g><g class="aimv-c" stroke="#6b6e75" stroke-opacity=".35" stroke-width="0.6" stroke-linejoin="round"><path fill="#ffffff" d="M-10 -26.8L0 -22L-10 -17.2L-20 -22Z"/></g><g class="aimv-c" stroke="#6b6e75" stroke-opacity=".35" stroke-width="0.6" stroke-linejoin="round"><path fill="#e8e9ed" d="M-30 -7.2L-20 -2.4L-20 7.6L-30 2.8Z"/></g><g class="aimv-c" stroke="#6b6e75" stroke-opacity=".35" stroke-width="0.6" stroke-linejoin="round"><path fill="#e8e9ed" d="M-20 7.6L-10 12.4L-10 22.4L-20 17.6Z"/></g><g class="aimv-c" stroke="#6b6e75" stroke-opacity=".35" stroke-width="0.6" stroke-linejoin="round"><path fill="#f2f3f5" d="M20 7.6L10 12.4L10 22.4L20 17.6Z"/></g><g class="aimv-c" stroke="#ffffff" stroke-opacity=".35" stroke-width="0.6" stroke-linejoin="round"><path fill="#6b6e75" d="M-10 22.4L0 27.2L0 37.2L-10 32.4Z"/><path fill="#6b6e75" d="M10 22.4L0 27.2L0 37.2L10 32.4Z"/></g><g class="aimv-c" stroke="#6b6e75" stroke-opacity=".35" stroke-width="0.6" stroke-linejoin="round"><path fill="#ffffff" d="M-20 -22L-10 -17.2L-20 -12.4L-30 -17.2Z"/><path fill="#e8e9ed" d="M-30 -17.2L-20 -12.4L-20 -2.4L-30 -7.2Z"/></g><g class="aimv-c" stroke="#6b6e75" stroke-opacity=".35" stroke-width="0.6" stroke-linejoin="round"><path fill="#e8e9ed" d="M-20 -2.4L-10 2.4L-10 12.4L-20 7.6Z"/></g><g class="aimv-c" stroke="#6b6e75" stroke-opacity=".35" stroke-width="0.6" stroke-linejoin="round"><path fill="#e8e9ed" d="M-10 12.4L0 17.2L0 27.2L-10 22.4Z"/><path fill="#f2f3f5" d="M10 12.4L0 17.2L0 27.2L10 22.4Z"/></g><g class="aimv-c" stroke="#6b6e75" stroke-opacity=".35" stroke-width="0.6" stroke-linejoin="round"><path fill="#e8e9ed" d="M-20 -12.4L-10 -7.6L-10 2.4L-20 -2.4Z"/></g><g class="aimv-c" stroke="#6b6e75" stroke-opacity=".35" stroke-width="0.6" stroke-linejoin="round"><path fill="#e8e9ed" d="M-10 2.4L0 7.2L0 17.2L-10 12.4Z"/></g><g class="aimv-c" stroke="#6b6e75" stroke-opacity=".35" stroke-width="0.6" stroke-linejoin="round"><path fill="#e8e9ed" d="M-20 -22.4L-10 -17.6L-10 -7.6L-20 -12.4Z"/></g><g class="aimv-c" stroke="#6b6e75" stroke-opacity=".35" stroke-width="0.6" stroke-linejoin="round"><path fill="#f2f3f5" d="M20 -22.4L10 -17.6L10 -7.6L20 -12.4Z"/></g><g class="aimv-c" stroke="#6b6e75" stroke-opacity=".35" stroke-width="0.6" stroke-linejoin="round"><path fill="#e8e9ed" d="M-10 -7.6L0 -2.8L0 7.2L-10 2.4Z"/></g><g class="aimv-c" stroke="#6b6e75" stroke-opacity=".35" stroke-width="0.6" stroke-linejoin="round"><path fill="#ffffff" d="M20 -12.4L30 -7.6L20 -2.8L10 -7.6Z"/></g><g class="aimv-c" stroke="#6b6e75" stroke-opacity=".35" stroke-width="0.6" stroke-linejoin="round"><path fill="#e8e9ed" d="M0 7.2L10 12L10 22L0 17.2Z"/></g><g class="aimv-c" stroke="#ffffff" stroke-opacity=".35" stroke-width="0.6" stroke-linejoin="round"><path fill="#6b6e75" d="M-20 -32.4L-10 -27.6L-10 -17.6L-20 -22.4Z"/></g><g class="aimv-c" stroke="#ffffff" stroke-opacity=".35" stroke-width="0.6" stroke-linejoin="round"><path fill="#6b6e75" d="M20 -32.4L10 -27.6L10 -17.6L20 -22.4Z"/></g><g class="aimv-c" stroke="#6b6e75" stroke-opacity=".35" stroke-width="0.6" stroke-linejoin="round"><path fill="#e8e9ed" d="M-10 -17.6L0 -12.8L0 -2.8L-10 -7.6Z"/><path fill="#f2f3f5" d="M10 -17.6L0 -12.8L0 -2.8L10 -7.6Z"/></g><g class="aimv-c" stroke="#6b6e75" stroke-opacity=".35" stroke-width="0.6" stroke-linejoin="round"><path fill="#ffffff" d="M10 -7.6L20 -2.8L10 2L0 -2.8Z"/><path fill="#e8e9ed" d="M0 -2.8L10 2L10 12L0 7.2Z"/></g><g class="aimv-c" stroke="#ffffff" stroke-opacity=".35" stroke-width="0.6" stroke-linejoin="round"><path fill="#e8e9ed" d="M30 -7.6L40 -2.8L30 2L20 -2.8Z"/></g><g class="aimv-c" stroke="#ffffff" stroke-opacity=".35" stroke-width="0.6" stroke-linejoin="round"><path fill="#6b6e75" d="M10 12L20 16.8L20 26.8L10 22Z"/></g><g class="aimv-c" stroke="#ffffff" stroke-opacity=".35" stroke-width="0.6" stroke-linejoin="round"><path fill="#6b6e75" d="M0 -62L10 -57.2L0 -52.4L-10 -57.2Z"/></g><g class="aimv-c" stroke="#ffffff" stroke-opacity=".35" stroke-width="0.6" stroke-linejoin="round"><path fill="#6b6e75" d="M-20 -42.4L-10 -37.6L-10 -27.6L-20 -32.4Z"/></g><g class="aimv-c" stroke="#ffffff" stroke-opacity=".35" stroke-width="0.6" stroke-linejoin="round"><path fill="#6b6e75" d="M20 -42.4L10 -37.6L10 -27.6L20 -32.4Z"/></g><g class="aimv-c" stroke="#ffffff" stroke-opacity=".35" stroke-width="0.6" stroke-linejoin="round"><path fill="#6b6e75" d="M-10 -27.6L0 -22.8L0 -12.8L-10 -17.6Z"/><path fill="#6b6e75" d="M10 -27.6L0 -22.8L0 -12.8L10 -17.6Z"/></g><g class="aimv-c" stroke="#ffffff" stroke-opacity=".35" stroke-width="0.6" stroke-linejoin="round"><path fill="#e8e9ed" d="M20 -2.8L30 2L20 6.8L10 2Z"/><path fill="#6b6e75" d="M10 2L20 6.8L20 16.8L10 12Z"/></g><g class="aimv-c" stroke="#ffffff" stroke-opacity=".35" stroke-width="0.6" stroke-linejoin="round"><path fill="#e8e9ed" d="M40 -2.8L50 2L40 6.8L30 2Z"/></g><g class="aimv-c" stroke="#ffffff" stroke-opacity=".35" stroke-width="0.6" stroke-linejoin="round"><path fill="#6b6e75" d="M20 16.8L30 21.6L30 31.6L20 26.8Z"/></g><g class="aimv-c" stroke="#ffffff" stroke-opacity=".35" stroke-width="0.6" stroke-linejoin="round"><path fill="#6b6e75" d="M60 16.8L50 21.6L50 31.6L60 26.8Z"/></g><g class="aimv-c" stroke="#ffffff" stroke-opacity=".35" stroke-width="0.6" stroke-linejoin="round"><path fill="#6b6e75" d="M-10 -57.2L0 -52.4L-10 -47.6L-20 -52.4Z"/><path fill="#202124" d="M-20 -52.4L-10 -47.6L-10 -37.6L-20 -42.4Z"/></g><g class="aimv-c" stroke="#ffffff" stroke-opacity=".35" stroke-width="0.6" stroke-linejoin="round"><path fill="#6b6e75" d="M10 -57.2L20 -52.4L10 -47.6L0 -52.4Z"/><path fill="#6b6e75" d="M20 -52.4L10 -47.6L10 -37.6L20 -42.4Z"/></g><g class="aimv-c" stroke="#ffffff" stroke-opacity=".35" stroke-width="0.6" stroke-linejoin="round"><path fill="#6b6e75" d="M-10 -37.6L0 -32.8L0 -22.8L-10 -27.6Z"/><path fill="#6b6e75" d="M10 -37.6L0 -32.8L0 -22.8L10 -27.6Z"/></g><g class="aimv-c" stroke="#ffffff" stroke-opacity=".35" stroke-width="0.6" stroke-linejoin="round"><path fill="#e8e9ed" d="M30 2L40 6.8L30 11.6L20 6.8Z"/><path fill="#6b6e75" d="M20 6.8L30 11.6L30 21.6L20 16.8Z"/></g><g class="aimv-c" stroke="#ffffff" stroke-opacity=".35" stroke-width="0.6" stroke-linejoin="round"><path fill="#6b6e75" d="M50 2L60 6.8L50 11.6L40 6.8Z"/><path fill="#6b6e75" d="M60 6.8L50 11.6L50 21.6L60 16.8Z"/></g><g class="aimv-c" stroke="#ffffff" stroke-opacity=".35" stroke-width="0.6" stroke-linejoin="round"><path fill="#202124" d="M30 21.6L40 26.4L40 36.4L30 31.6Z"/><path fill="#6b6e75" d="M50 21.6L40 26.4L40 36.4L50 31.6Z"/></g><g class="aimv-c" stroke="#ffffff" stroke-opacity=".35" stroke-width="0.6" stroke-linejoin="round"><path fill="#6b6e75" d="M0 -52.4L10 -47.6L0 -42.8L-10 -47.6Z"/><path fill="#202124" d="M-10 -47.6L0 -42.8L0 -32.8L-10 -37.6Z"/><path fill="#6b6e75" d="M10 -47.6L0 -42.8L0 -32.8L10 -37.6Z"/></g><g class="aimv-c" stroke="#ffffff" stroke-opacity=".35" stroke-width="0.6" stroke-linejoin="round"><path fill="#6b6e75" d="M40 6.8L50 11.6L40 16.4L30 11.6Z"/><path fill="#202124" d="M30 11.6L40 16.4L40 26.4L30 21.6Z"/><path fill="#6b6e75" d="M50 11.6L40 16.4L40 26.4L50 21.6Z"/></g></g></svg>